<svg id="Layer_1" data-name="Layer 1" xmlns="http://www.w3.org/2000/svg" xmlns:xlink="http://www.w3.org/1999/xlink" viewBox="0 0 1200 1200"><defs><style>.cls-1{fill:url(#linear-gradient);}.cls-2{fill:url(#linear-gradient-2);}.cls-3{fill:url(#linear-gradient-3);}.cls-4{fill:url(#linear-gradient-4);}.cls-5{fill:url(#linear-gradient-5);}.cls-6,.cls-7{fill:none;}.cls-7{clip-rule:evenodd;}.cls-8{clip-path:url(#clip-path);}.cls-9{fill:#fff;}.cls-10{clip-path:url(#clip-path-2);}.cls-11{fill:url(#linear-gradient-6);}.cls-12{clip-path:url(#clip-path-3);}.cls-13{fill:url(#linear-gradient-7);}.cls-14{mask:url(#mask);}.cls-15{fill:#01052d;}.cls-15,.cls-18,.cls-21,.cls-23,.cls-25{fill-rule:evenodd;}.cls-16{mask:url(#mask-2);}.cls-17{mask:url(#mask-3);}.cls-18{fill:#ffbcd8;}.cls-19{clip-path:url(#clip-path-4);}.cls-20{fill:url(#linear-gradient-8);}.cls-21{fill:#740107;opacity:0.22;}.cls-22{mask:url(#mask-4);}.cls-23{fill:#f9fcba;}.cls-24{mask:url(#mask-5);}.cls-25{fill:#8effc1;}</style><linearGradient id="linear-gradient" x1="273.3" y1="877.77" x2="27.54" y2="1246.77" gradientTransform="translate(438.36 -698.61)" gradientUnits="userSpaceOnUse"><stop offset="0" stop-color="#fff"/><stop offset="1"/></linearGradient><linearGradient id="linear-gradient-2" x1="242.52" y1="888.75" x2="-3.24" y2="1257.75" gradientTransform="translate(485.62 -698.61)" xlink:href="#linear-gradient"/><linearGradient id="linear-gradient-3" x1="-52.82" y1="1404.64" x2="195.29" y2="834.71" gradientTransform="translate(347.08 -462.88)" xlink:href="#linear-gradient"/><linearGradient id="linear-gradient-4" x1="976.47" y1="1375.49" x2="42.65" y2="1087.71" gradientTransform="translate(446.92 -462.8)" xlink:href="#linear-gradient"/><linearGradient id="linear-gradient-5" x1="-138.25" y1="652.42" x2="259.99" y2="1178.25" gradientTransform="translate(438.36 -602.97)" xlink:href="#linear-gradient"/><clipPath id="clip-path" transform="translate(0 -2)"><rect class="cls-6" x="-1" y="1" width="1202" height="1202"/></clipPath><clipPath id="clip-path-2" transform="translate(0 -2)"><path class="cls-7" d="M657.46,503.39A98.51,98.51,0,0,1,626.1,599H762.64a213.84,213.84,0,0,0,13.17-74.14c0-118.39-96-214.37-214.36-214.37A212.5,212.5,0,0,0,438.36,349.7a187.94,187.94,0,0,1,219.1,153.69"/></clipPath><linearGradient id="linear-gradient-6" x1="678.58" y1="614.44" x2="549.37" y2="322.26" gradientUnits="userSpaceOnUse"><stop offset="0" stop-color="#0049e7"/><stop offset="1" stop-color="#16ea9e"/></linearGradient><clipPath id="clip-path-3" transform="translate(0 -2)"><path class="cls-7" d="M479.47,470.48a99.33,99.33,0,0,1,19-21.18,98.39,98.39,0,0,1,159,54.09A187.94,187.94,0,0,0,438.36,349.7c-55.2,39-91.28,103.36-91.28,175.19a213.54,213.54,0,0,0,207,214.23,175.11,175.11,0,0,1-74.63-268.64"/></clipPath><linearGradient id="linear-gradient-7" x1="595.89" y1="389.72" x2="414.22" y2="676.59" gradientUnits="userSpaceOnUse"><stop offset="0" stop-color="#114fee"/><stop offset="1" stop-color="#f15ac3"/></linearGradient><mask id="mask" x="438.36" y="344.64" width="219.11" height="156.74" maskUnits="userSpaceOnUse"><g transform="translate(0 -2)"><rect class="cls-1" x="438.36" y="346.64" width="219.11" height="156.74"/></g></mask><mask id="mask-2" x="485.62" y="345.13" width="171.84" height="156.26" maskUnits="userSpaceOnUse"><g transform="translate(0 -2)"><rect class="cls-2" x="485.62" y="347.13" width="171.84" height="156.26"/></g></mask><mask id="mask-3" x="347.08" y="344.64" width="241.65" height="392.47" maskUnits="userSpaceOnUse"><g transform="translate(0 -2)"><rect class="cls-3" x="347.08" y="346.64" width="241.65" height="392.47"/></g></mask><clipPath id="clip-path-4" transform="translate(0 -2)"><path class="cls-7" d="M554.1,623a98.39,98.39,0,0,1-74.63-152.51A175.11,175.11,0,0,0,554.1,739.12l298.82.08L757.09,623.27Z"/></clipPath><linearGradient id="linear-gradient-8" x1="463.16" y1="543.33" x2="844.91" y2="668.13" gradientUnits="userSpaceOnUse"><stop offset="0" stop-color="#bd007d"/><stop offset="1" stop-color="#f6ec4f"/></linearGradient><mask id="mask-4" x="446.92" y="607.45" width="406" height="129.75" maskUnits="userSpaceOnUse"><g transform="translate(0 -2)"><rect class="cls-4" x="446.92" y="609.45" width="406" height="129.75"/></g></mask><mask id="mask-5" x="438.36" y="308.52" width="337.46" height="288.51" maskUnits="userSpaceOnUse"><g transform="translate(0 -2)"><rect class="cls-5" x="438.36" y="310.52" width="337.46" height="288.51"/></g></mask></defs><title>letter_q_modern_logo_gradient_colorful [Converted]</title><g class="cls-8"><rect class="cls-9" width="1200" height="1200"/><g class="cls-10"><rect class="cls-11" x="438.36" y="308.52" width="337.46" height="288.51"/></g><g class="cls-12"><rect class="cls-13" x="347.08" y="337.99" width="310.38" height="399.13"/></g><g class="cls-14"><path class="cls-15" d="M543.67,428.12a98.45,98.45,0,0,1,113.79,75.27A187.94,187.94,0,0,0,438.36,349.7s102.15,3.2,105.31,78.42" transform="translate(0 -2)"/></g><g class="cls-16"><path class="cls-15" d="M602.24,435.35a98.5,98.5,0,0,1,55.22,68A187.94,187.94,0,0,0,485.62,347.13c1.74.24,94.64,13.3,116.62,88.22" transform="translate(0 -2)"/></g><g class="cls-17"><path class="cls-18" d="M588.73,387.19A188,188,0,0,0,438.36,349.7c-55.2,39-91.28,103.36-91.28,175.19a213.54,213.54,0,0,0,207,214.23A175.1,175.1,0,0,1,446.92,609.45,137.2,137.2,0,0,1,588.73,387.19" transform="translate(0 -2)"/></g><g class="cls-19"><rect class="cls-20" x="437.46" y="468.48" width="415.46" height="268.71"/></g><path class="cls-21" d="M514.83,611.53a98.41,98.41,0,0,1-35.36-141A175.11,175.11,0,0,0,554.1,739.12s-77.76-60-39.27-127.59" transform="translate(0 -2)"/><path class="cls-21" d="M474.73,571.38a98.48,98.48,0,0,1,4.74-100.9,175.13,175.13,0,0,0,33.88,245.7h0s-70.57-58.28-38.62-144.79" transform="translate(0 -2)"/><g class="cls-22"><path class="cls-23" d="M446.92,609.45A175.1,175.1,0,0,0,554.1,739.12l298.82.08-47.92-58-195.28-5c-82.21-2.09-110.27-8.86-162.8-66.82" transform="translate(0 -2)"/></g><g class="cls-24"><path class="cls-25" d="M588.73,387.19A133.8,133.8,0,0,1,694.37,599h68.27a213.84,213.84,0,0,0,13.17-74.14c0-118.39-96-214.37-214.36-214.37A212.5,212.5,0,0,0,438.36,349.7a188,188,0,0,1,150.37,37.49" transform="translate(0 -2)"/></g></g></svg>